<svg width="157" height="167" viewBox="0 0 157 167" fill="none" xmlns="http://www.w3.org/2000/svg">
<g clip-path="url(#clip0_2176_42)">
<path d="M130.801 49.9978C124.533 35.3837 100.523 41.7847 89.3023 46.8119C78.3623 31.7034 56.7328 3.69688 49.4033 4.71082C44.4038 5.40242 46.163 11.9296 47.2362 14.3658C45.95 11.4463 41.6993 9.25963 38.9915 11.4474C35.7066 14.1014 37.6305 19.7218 38.5071 21.5404C37.3226 19.4734 31.5005 16.9193 29.03 19.8245C22.9397 26.9861 36.2242 57.1502 44.6247 72.5992C44.6247 72.5992 10.5378 95.6443 11.4211 101.923C11.9496 105.68 18.1628 105.138 21.1529 104.647C21.1529 104.647 13.3204 110.269 14.8286 114.415C16.0684 117.823 20.3709 118.238 23.3691 117.013C20.6214 118.333 17.5284 123.34 20.5548 126.523C25.9393 132.184 50.4829 120.632 63.0124 114.284C63.0124 114.284 72.7722 159.906 80.6615 159.681C83.7396 159.593 86.2714 154.794 85.5709 152.259C86.6602 155.896 88.6629 161.907 92.9654 161.088C97.0914 160.303 97.4178 153.994 97.2733 151.491C97.4619 154.758 103.096 158.987 106.519 157.589C115.131 154.073 112.258 112.67 108.561 91.5909C108.561 91.5909 138.637 68.2655 130.801 49.9978Z" fill="#FFFCF0"/>
<path d="M89.3023 46.8119C100.523 41.7847 124.533 35.3837 130.801 49.9978C138.637 68.2655 108.561 91.5909 108.561 91.5909C112.258 112.67 115.131 154.073 106.519 157.589C103.096 158.987 97.4619 154.758 97.2733 151.491C97.4178 153.994 97.0914 160.303 92.9654 161.088C88.6193 161.915 86.6199 155.773 85.5381 152.149C86.3453 154.653 83.7846 159.592 80.6615 159.681C72.7722 159.906 63.0124 114.284 63.0124 114.284C50.4829 120.632 25.9393 132.184 20.5548 126.523C17.4187 123.225 20.8536 117.968 23.666 116.885C20.6627 118.263 16.11 117.938 14.8286 114.415C13.3204 110.269 21.1529 104.647 21.1529 104.647C18.1628 105.138 11.9496 105.68 11.4211 101.923C10.5378 95.6443 44.6247 72.5992 44.6247 72.5992C36.2242 57.1502 22.9397 26.9861 29.03 19.8245C31.5005 16.9193 37.3226 19.4734 38.5071 21.5404C37.6305 19.7218 35.7066 14.1014 38.9915 11.4474C41.6993 9.25963 45.95 11.4463 47.2362 14.3658C46.163 11.9296 44.4038 5.40242 49.4033 4.71082C56.7328 3.69688 78.3623 31.7034 89.3023 46.8119Z" stroke="#111111"/>
<path d="M58.9893 31.0321C58.3825 29.9239 56.0752 27.4164 53.1326 29.457C50.9166 30.9937 50.8859 35.0143 52.0995 36.5227C51.3375 35.4925 49.5414 33.9183 46.7078 35.8402C43.8743 37.7621 44.2774 41.4641 45.4032 43.1869" stroke="#111111"/>
<path d="M99.1113 124.515C99.0415 128.744 94.1247 134.945 89.4888 129.627C89.9999 130.819 88.3573 134.307 85.7642 135.38C81.5578 137.121 79.5521 133.164 79.075 130.968" stroke="#111111"/>
<path d="M114.551 55.0214C113.785 56.2047 114.141 57.8463 115.4 58.6766C116.658 59.5066 118.29 59.1763 119.056 57.9931C119.822 56.8099 119.466 55.1695 118.208 54.3393C116.949 53.5091 115.317 53.8385 114.551 55.0214Z" fill="#111111" stroke="#111111"/>
<path d="M146.896 43.216C145.601 41.0958 133.431 43.6576 127.508 45.2036C131.473 49.0851 132.199 55.8604 132.067 58.763C137.549 54.4641 148.191 45.3363 146.896 43.216Z" fill="black" stroke="black"/>
<path d="M117.341 65.8299C121.438 60.0898 128.219 61.0444 131.097 62.2392C129.593 69.2675 122.012 78.2325 118.409 81.8364C118.409 81.8364 112.219 73.0049 117.341 65.8299Z" fill="#F0CECE" stroke="black"/>
<path d="M27.4486 99.832C27.4486 99.832 39.4486 92.332 45.9486 90.832" stroke="black"/>
<path d="M32.4486 109.832C32.4486 109.832 44.9486 105.832 50.9486 100.832" stroke="black"/>
</g>
<defs>
<clipPath id="clip0_2176_42">
<rect width="157" height="167" fill="white"/>
</clipPath>
</defs>
</svg>
