<svg width="224" height="152" viewBox="0 0 224 152" fill="none" xmlns="http://www.w3.org/2000/svg">
<path d="M115.608 143C106.808 141.4 112.608 130.333 116.608 125C119.608 125.5 137.274 126.333 145.608 126.5C139.274 132.667 124.408 144.6 115.608 143Z" fill="#F0CECE" stroke="black"/>
<path d="M10.0098 41.1313C2.80977 53.9313 16.6764 72.798 24.5098 80.6313C17.6764 89.6312 6.30977 110.331 15.5098 121.131C24.7098 131.931 47.0098 118.298 57.0098 110.131L51.0098 51.1313C40.3431 42.4647 17.2098 28.3313 10.0098 41.1313Z" fill="#F0CECE" stroke="black"/>
<path d="M204 88.1242C192.5 2.625 97.8333 31.1307 51 51.1307L57 110.63C108.5 134.797 210.731 138.165 204 88.1242Z" fill="#F0CECE" stroke="black"/>
<path d="M70.7538 131C65.5538 126.2 73.2365 121.5 76.7363 118C79.2544 119 91.7544 122.5 98.2363 124C91.0696 128.5 75.9538 135.8 70.7538 131Z" fill="#F0CECE" stroke="black"/>
<ellipse cx="12.6285" cy="13.1012" rx="12.6285" ry="13.1012" transform="matrix(-0.543477 0.839424 0.834791 0.550567 163.007 58.2793)" fill="white"/>
<path d="M159.681 71.252C157.091 75.252 158.363 80.7671 162.592 83.5566C166.822 86.346 172.337 85.3071 174.927 81.3074C177.517 77.3075 176.245 71.7916 172.016 69.002C167.786 66.2124 162.27 67.252 159.681 71.252Z" fill="#111111" stroke="#111111"/>
<ellipse cx="9.16953" cy="9.63167" rx="9.16953" ry="9.63167" transform="matrix(-0.543477 0.839424 0.834791 0.550567 150.967 84)" fill="#EAB5B5"/>
<path d="M72.7801 31.7792C55.9801 30.1792 54.1134 42.7792 55.2801 49.2792C109 26.9997 142.5 28.5 155 31.5C149.5 13.9999 111.78 6.77878 93.78 11.2788C79.38 14.8788 73.7801 26.4457 72.7801 31.7792Z" fill="#F0CECE" stroke="black"/>
<path d="M142.28 55.2793C136.613 60.446 126.98 74.9793 133.78 91.7793C140.58 108.579 146.947 111.113 149.28 110.279" stroke="black"/>
<path d="M178.78 99.7793C180.613 102.613 187.88 107.179 202.28 102.779" stroke="black"/>
<path d="M105.546 72.0637C102.233 69.433 100.308 61.7574 107.349 61.3176C106.092 60.9971 104.326 57.5707 105.053 54.8602C106.234 50.4635 110.593 51.2815 112.626 52.2401" stroke="#111111"/>
<path d="M91.5457 71.0637C88.233 68.433 86.3081 60.7574 93.349 60.3176C92.0921 59.9971 90.3258 56.5707 91.0534 53.8602C92.2335 49.4635 96.5935 50.2815 98.6259 51.2401" stroke="#111111"/>
<path d="M103.063 107.5C96.6628 94.3 120.667 91 133.5 91C134.437 94.5 139.229 102.5 141.563 106C137.563 109.5 111.063 124 103.063 107.5Z" fill="#F0CECE" stroke="black"/>
</svg>
